HIERARCHY
ROOT hip
{
  OFFSET 0.0 0.0 0.0
  CHANNELS 6 Xposition Yposition Zposition Zrotation Yrotation Xrotation
  JOINT torso
  {
    OFFSET 0.0 0.0 0.0
    CHANNELS 3 Zrotation Xrotation Yrotation
    JOINT neck
    {
      OFFSET -31.42098999999993 328.8025209999999 74.3554680000002
      CHANNELS 3 Zrotation Xrotation Yrotation
      JOINT head
      {
        OFFSET 3.3519900000001144 303.81732099999994 206.53942900000015
        CHANNELS 3 Zrotation Xrotation Yrotation
        End Site
        {
          OFFSET 0.0 0.0 0.0
        }
      }
    }
    JOINT left_collar
    {
      OFFSET -31.42098999999993 328.8025209999999 74.3554680000002
      CHANNELS 3 Zrotation Xrotation Yrotation
      JOINT left_upper_arm
      {
        OFFSET -124.490479 -8.162841999999841 8.226441000000023
        CHANNELS 3 Zrotation Xrotation Yrotation
        JOINT left_forearm
        {
          OFFSET -253.595764 -1.5758060000000569 105.0729980000001
          CHANNELS 3 Zrotation Xrotation Yrotation
          JOINT left_hand
          {
            OFFSET -269.48803699999996 0.1478270000000066 -55.346191999999974
            CHANNELS 3 Zrotation Xrotation Yrotation
            End Site
            {
              OFFSET 0.0 0.0 0.0
            }
          }
        }
      }
    }
    JOINT right_collar
    {
      OFFSET -31.42098999999993 328.8025209999999 74.3554680000002
      CHANNELS 3 Zrotation Xrotation Yrotation
      JOINT right_upper_arm
      {
        OFFSET 162.02484099999998 0.46441600000002836 2.2303470000001653
        CHANNELS 3 Zrotation Xrotation Yrotation
        JOINT right_forearm
        {
          OFFSET 240.01246700000004 -25.835875999999985 121.34179699999959
          CHANNELS 3 Zrotation Xrotation Yrotation
          JOINT right_hand
          {
            OFFSET 252.48539699999992 18.910399999999868 -67.53466800000001
            CHANNELS 3 Zrotation Xrotation Yrotation
            End Site
            {
              OFFSET 0.0 0.0 0.0
            }
          }
        }
      }
    }
  }
}
MOTION
Frames: 16
Frame Time: 0.01
-350.19258564633463 223.71888386220303 587.6736391999409 3.6318327937735493 1.5241497414893292 -5.397588969773232 0.25709578151198503 -2.4657428216268205 -0.2979533080236168 -5.709156400145072 -4.829659479518978 4.062674515530635 0.0 0.0 0.0 5.847013717209461 -0.8427206533384649 10.530666333074345 34.691395372234304 9.527620077213507 14.921516905897219 36.15325427297882 -3.605363654871784 -12.214110887021805 0.0 0.0 0.0 1.1909656746940838 -0.11945226358129514 7.751641275798897 -33.72807553827653 13.962394203632162 -8.421186447134959 -36.30637731283208 4.599707521530213 56.017661863033105 0.0 0.0 0.0
-352.14388428745895 224.70279396247528 588.4565107099011 3.2712366466680254 1.5888797360420792 -5.277761045846636 0.23610400845774834 -2.4844714797976333 -0.2945832755945852 -5.492753994822688 -4.786093784405562 3.908931289040307 0.0 0.0 0.0 5.739879989194589 -0.8177629471535158 10.339805087364187 34.770380593576405 9.578627946258164 14.83976819256421 36.29189618309493 -3.4658627159720177 -12.68191747012467 0.0 0.0 0.0 1.1456780899451797 -0.11439950442729148 7.646839274823547 -33.514831579298104 13.881292150379165 -8.37703221829929 -36.347320137329035 4.73377020443708 56.48254773519283 0.0 0.0 0.0
-353.9334648553403 225.5039595353235 589.3303758362939 2.950739478830899 1.6387208140523752 -5.15421278180913 0.21566832673724412 -2.5002430789584698 -0.29105895133293386 -5.286420322939484 -4.7359220413382594 3.762144118535841 0.0 0.0 0.0 5.6352744629053575 -0.7946817080978549 10.161594068677108 34.83316310914856 9.633682232238407 14.73250126068211 36.42601130135944 -3.3094242160194294 -13.196141811275023 0.0 0.0 0.0 1.1006714380728733 -0.1097464118377681 7.565432160953128 -33.33229321639813 13.797081645102928 -8.371131367609228 -36.3683405700104 4.864132748251982 56.95046597692211 0.0 0.0 0.0
-355.557493817633 226.1346043390057 590.2876087636744 2.669649081976094 1.6755348069840454 -5.028232353660504 0.195961672287808 -2.513695338636012 -0.2874862316223337 -5.092527824613009 -4.680916943603297 3.624046515279702 0.0 0.0 0.0 5.534073619076101 -0.7734890042748258 9.996389468669195 34.880703934451375 9.692060754038662 14.60267954747818 36.552620106317576 -3.1375703419970735 -13.75110553035278 0.0 0.0 0.0 1.0567591128745502 -0.1055110462946693 7.505931885088967 -33.18420750941258 13.711672665166443 -8.403625015804794 -36.37194162407647 4.989460778478311 57.41498015418504 0.0 0.0 0.0
-357.01376960133973 226.60837207129208 591.3200940748933 2.426758781243992 1.701106235447474 -4.901243662782237 0.1771660311835569 -2.525404500322602 -0.2839668939507571 -4.9133968175706615 -4.622766461590874 3.4963222620507217 0.0 0.0 0.0 5.437168435084045 -0.7541917865440849 9.84453664378443 34.91432031831422 9.753023298650495 14.453568745574955 36.66913656567092 -2.952008749285398 -14.340978885573733 0.0 0.0 0.0 1.0147037311851643 -0.10170853461965712 7.466806875795349 -33.073595275383994 13.626907404937155 -8.473886347489183 -36.36071838261513 5.108503919088483 57.869753230940205 0.0 0.0 0.0
-358.30174964858026 226.93991983623687 592.4194140789108 2.220386377441451 1.7171033432604763 -4.774720497988173 0.1594638700936192 -2.53587325357682 -0.28059538825945807 -4.751264167074943 -4.5630149301838445 3.380582748810126 0.0 0.0 0.0 5.345425686859365 -0.7367887595012944 9.706339130617446 34.93566516351757 9.815838051470108 14.28866401149288 36.773481771386386 -2.7546040512035392 -14.95987675839968 0.0 0.0 0.0 0.9751860127612408 -0.0983502025976145 7.446496300939924 -33.00267642117244 13.544489536551902 -8.580571800949256 -36.33726028501775 5.220128969885714 58.30873057074152 0.0 0.0 0.0
-359.4225263184507 227.14452030272193 593.5770190414507 2.0484243064284264 1.7250516094778163 -4.650100982593456 0.14302875210349705 -2.5455225107356565 -0.2774558083349086 -4.60824710173171 -4.503017657311899 3.2783418520029897 0.0 0.0 0.0 5.2596511221044455 -0.721267626620915 9.582026507105663 34.94669468940197 9.8798065102618 14.111612739284011 36.864174287230085 -2.547340892731622 -15.601947187680452 0.0 0.0 0.0 0.9387792821098864 -0.09544271520059248 7.443418257123784 -32.97282610629824 13.465927793917874 -8.721692223454074 -36.30405612546837 5.323344019474769 58.72630586427726 0.0 0.0 0.0
-360.3787544432506 227.23768567690317 594.7843739064913 1.9083983808089084 1.7263194736968848 -4.528707090860334 0.12801584518857345 -2.554687170053524 -0.27461922361009705 -4.486302259478584 -4.443910828168101 3.1909882680014743 0.0 0.0 0.0 5.180556520886203 -0.7076029242262687 9.471724082857524 34.94962533448776 9.944285496094855 13.926135432988495 36.940393293940915 -2.332280828995525 -16.261449740837715 0.0 0.0 0.0 0.9059308275227163 -0.09298729614373519 7.455973930401317 -32.9845614302509 13.392495797194783 -8.894699166498924 -36.26340797178153 5.417313752000023 59.11746396767271 0.0 0.0 0.0
-361.17453534730765 227.23482431090324 596.0330775495795 1.7975324629283134 1.722115301983692 -4.411673168371069 0.11455308925952074 -2.5636158742118145 -0.2721415528425733 -4.387180601155205 -4.386597299310346 3.119755557685582 0.0 0.0 0.0 5.108732250053769 -0.6957545699741507 9.375427005480915 34.94688153393767 10.008705106731535 13.735947269214135 37.002012332697205 -2.1115158176423483 -16.93282159995058 0.0 0.0 0.0 0.8769507728319242 -0.09097909297848865 7.482549727650201 -33.03755692652221 13.325208504731924 -9.096581408666532 -36.2173594812891 5.501367039918747 59.477896179711294 0.0 0.0 0.0
-361.8152637370046 227.15093822981316 597.3149529922626 1.712816534155414 1.71349406332251 -4.299886445040489 0.102733755026816 -2.5724745752417015 -0.2700621349304913 -4.312379378697197 -4.331747772720846 3.06569052885386 0.0 0.0 0.0 5.044626458972319 -0.6856671728301577 9.292980828111824 34.94103651713414 10.072581756899789 13.544682930195352 37.04960322719635 -1.8871214018054647 -17.610729967076466 0.0 0.0 0.0 0.8520085855187086 -0.08940674773084828 7.521519192763721 -33.13068602209185 13.264814303251836 -9.32396712164701 -36.16764286238781 5.574998450849264 59.80408514895394 0.0 0.0 0.0
-362.3074449946734 227.00036722692477 598.6221091033879 1.6510758707115436 1.70137179875104 -4.193941554696403 0.09261098416694465 -2.581353479867344 -0.26840309585289196 -4.263092824245847 -4.279815902514001 3.029620927953042 0.0 0.0 0.0 4.988531576053841 -0.6772700865707317 9.224069926527196 34.934748618466124 10.135525789476107 13.355827194791432 37.084411453595386 -1.6611126020646823 -18.29011018010656 0.0 0.0 0.0 0.8311368835809521 -0.08825222519531035 7.571246212521932 -33.26208476602251 13.21180064185448 -9.573227685900605 -36.115647189106284 5.637865505404145 60.09335826263455 0.0 0.0 0.0
-362.65849100804576 226.79658259587953 599.9469759931736 1.6090393855040328 1.6865457566521769 -4.094110131822129 0.08419466170938358 -2.5902767167285337 -0.2671695324229214 -4.240163589164217 -4.231065164124081 3.0121236954535977 0.0 0.0 0.0 4.940578281975542 -0.6704781419711227 9.16821445248867 34.930695754166806 10.197243501439498 13.1726535571595 37.10830568276452 -1.4354051887629797 -18.966189704217822 0.0 0.0 0.0 0.8142418190894075 -0.08749093994234643 7.630090613577425 -33.429233525459786 13.166410354536797 -9.84057986566098 -36.06240910694186 5.689783429457764 60.34390992052289 0.0 0.0 0.0
-362.87650273220993 226.55203115809547 601.2823175789267 1.583405586900319 1.6697180312909354 -4.000325700178053 0.07745069930974556 -2.599213894449985 -0.26635045301995436 -4.244037192646717 -4.185604812898446 3.013495241842442 0.0 0.0 0.0 4.900736688844377 -0.6651929659055572 9.124775842227196 34.93151069336365 10.257533786374934 12.998172778780164 37.123705330368004 -1.2117844369864397 -19.634498870612866 0.0 0.0 0.0 0.8011190108772902 -0.08709220795051434 7.696416802220201 -33.6290519921866 13.128665432895119 -10.122183744769561 -36.00862532704063 5.730718811414499 60.55479445037957 0.0 0.0 0.0
-362.9700472509557 226.27802809449878 602.6212257602463 1.570904965690351 1.6515206513659624 -3.9121833403951567 0.07230257693369231 -2.6080926493166277 -0.265920354555203 -4.27472184496299 -4.143431955136195 3.0337253196106686 0.0 0.0 0.0 4.868824070131918 -0.6613047849775366 9.092970311663173 34.939719572923586 10.316279920848162 12.835092800242125 37.133490656545625 -0.9918827585326243 -20.290869843256377 0.0 0.0 0.0 0.7914737737625116 -0.08702002929083986 7.768605653347447 -33.858002746136805 13.098394998823947 -10.414234420757904 -35.954684811015944 5.7607830898033585 60.725892517527434 0.0 0.0 0.0
-362.9479362582667 225.98469526646124 603.9571013495964 1.568357903477256 1.6325402799451263 -3.828953043377413 0.06863484723526239 -2.6168113237382933 -0.2658412856348714 -4.331756005165045 -4.104476622046512 3.0724761027030016 0.0 0.0 0.0 4.844518189894115 -0.6586946102831132 9.071889280865996 34.95768580321744 10.373437282404739 12.68579089854892 37.1409002499218 -0.7771668457370257 -20.93142578951886 0.0 0.0 0.0 0.7849442461142281 -0.08723418479634512 7.845069446475671 -34.11219878007835 13.07526454227072 -10.713045908789256 -35.90071729762191 5.780226259285382 60.85785469314979 0.0 0.0 0.0
-362.8190117235642 225.6809402533936 605.2836273220124 1.572727400258999 1.613340960750664 -3.749605222634356 0.06629824977705662 -2.625251046504826 -0.2660652450903446 -4.414185929449348 -4.068646757783148 3.1290680405398734 0.0 0.0 0.0 4.8273750905931 -0.6572367018989381 9.060525285632766 34.987561103604726 10.429017957674956 12.552298417083545 37.14942064758232 -0.5689342330453215 -21.552562597280478 0.0 0.0 0.0 0.7811259478396497 -0.08769160312676413 7.924269280495635 -34.38751077525402 13.05880405664515 -11.015126010410315 -35.84665390488461 5.789430695402513 60.952026378852864 0.0 0.0 0.0
